<?xml version="1.0" encoding="UTF-8" standalone="no"?>
<!DOCTYPE svg PUBLIC "-//W3C//DTD SVG 1.1//EN"
"http://www.w3.org/Graphics/SVG/1.1/DTD/svg11.dtd">
<svg viewBox="0 0 909 1286" version="1.1" xmlns="http://www.w3.org/2000/svg" xmlns:xlink="http://www.w3.org/1999/xlink">
<defs>
<clipPath id="c0"><path d="M0 1286.8V0H909.8V1286.8Z"/></clipPath>
<style type="text/css"><![CDATA[
.g0{
fill: #FFF;
}
.g1{
fill: #000;
}
.g2{
fill: none;
stroke: #000;
stroke-width: 4.583;
stroke-miterlimit: 10;
}
.g3{
fill: none;
stroke: #000;
stroke-width: 1.145;
stroke-miterlimit: 10;
}
]]></style>
</defs>
<g clip-path="url(#c0)">
<path d="M0 0H909.8V1286.8H0V0Z" class="g0"/>
<path d="M0 0H909.8V1286.8H0V0Z" class="g0"/>
</g>
<path d="M94.3 509.1c0 .3 0 .6 -.1 .8c-.1 .3 -.3 .5 -.5 .7c-.2 .2 -.4 .3 -.7 .5c-.2 .1 -.5 .1 -.7 .1c-.3 0 -.6 0 -.8 -.1c-.3 -.2 -.5 -.3 -.7 -.5c-.2 -.2 -.4 -.4 -.5 -.7c-.1 -.2 -.1 -.5 -.1 -.8c0 -.2 0 -.5 .1 -.8c.1 -.2 .3 -.4 .5 -.6c.2 -.2 .4 -.4 .7 -.5c.2 -.1 .5 -.1 .8 -.1c.2 0 .5 0 .7 .1c.3 .1 .5 .3 .7 .5c.2 .2 .4 .4 .5 .6c.1 .3 .1 .6 .1 .8Z" class="g1"/>
<path d="M94.3 548.5c0 .2 0 .5 -.1 .8c-.1 .2 -.3 .4 -.5 .6c-.2 .2 -.4 .4 -.7 .5c-.2 .1 -.5 .1 -.7 .1c-.3 0 -.6 0 -.8 -.1c-.3 -.1 -.5 -.3 -.7 -.5c-.2 -.2 -.4 -.4 -.5 -.6c-.1 -.3 -.1 -.6 -.1 -.8c0 -.3 0 -.6 .1 -.8c.1 -.3 .3 -.5 .5 -.7c.2 -.2 .4 -.3 .7 -.4c.2 -.1 .5 -.2 .8 -.2c.2 0 .5 .1 .7 .2c.3 .1 .5 .2 .7 .4c.2 .2 .4 .4 .5 .7c.1 .2 .1 .5 .1 .8Z" class="g1"/>
<path d="M94.3 587.8c0 .3 0 .5 -.1 .8c-.1 .2 -.3 .5 -.5 .7c-.2 .2 -.4 .3 -.7 .4c-.2 .1 -.5 .2 -.7 .2c-.3 0 -.6 -.1 -.8 -.2c-.3 -.1 -.5 -.2 -.7 -.4c-.2 -.2 -.4 -.5 -.5 -.7c-.1 -.3 -.1 -.5 -.1 -.8c0 -.3 0 -.5 .1 -.8c.1 -.3 .3 -.5 .5 -.7c.2 -.2 .4 -.3 .7 -.4c.2 -.1 .5 -.2 .8 -.2c.2 0 .5 .1 .7 .2c.3 .1 .5 .2 .7 .4c.2 .2 .4 .4 .5 .7c.1 .3 .1 .5 .1 .8Z" class="g1"/>
<path d="M94.3 685.8c0 .3 0 .5 -.1 .8c-.1 .2 -.3 .5 -.5 .7c-.2 .2 -.4 .3 -.7 .4c-.2 .1 -.5 .2 -.7 .2c-.3 0 -.6 -.1 -.8 -.2c-.3 -.1 -.5 -.2 -.7 -.4c-.2 -.2 -.4 -.5 -.5 -.7c-.1 -.3 -.1 -.5 -.1 -.8c0 -.3 0 -.5 .1 -.8c.1 -.2 .3 -.5 .5 -.7c.2 -.2 .4 -.3 .7 -.4c.2 -.1 .5 -.2 .8 -.2c.2 0 .5 .1 .7 .2c.3 .1 .5 .2 .7 .4c.2 .2 .4 .5 .5 .7c.1 .3 .1 .5 .1 .8Z" class="g1"/>
<path d="M94.3 705.5c0 .2 0 .5 -.1 .8c-.1 .2 -.3 .4 -.5 .6c-.2 .2 -.4 .4 -.7 .5c-.2 .1 -.5 .1 -.7 .1c-.3 0 -.6 0 -.8 -.1c-.3 -.1 -.5 -.3 -.7 -.5c-.2 -.2 -.4 -.4 -.5 -.6c-.1 -.3 -.1 -.6 -.1 -.8c0 -.3 0 -.6 .1 -.8c.1 -.3 .3 -.5 .5 -.7c.2 -.2 .4 -.3 .7 -.4c.2 -.2 .5 -.2 .8 -.2c.2 0 .5 0 .7 .2c.3 .1 .5 .2 .7 .4c.2 .2 .4 .4 .5 .7c.1 .2 .1 .5 .1 .8Z" class="g1"/>
<path d="M94.3 744.8c0 .3 0 .5 -.1 .8c-.1 .2 -.3 .5 -.5 .7c-.2 .1 -.4 .3 -.7 .4c-.2 .1 -.5 .2 -.7 .2c-.3 0 -.6 -.1 -.8 -.2c-.3 -.1 -.5 -.3 -.7 -.4c-.2 -.2 -.4 -.5 -.5 -.7c-.1 -.3 -.1 -.5 -.1 -.8c0 -.3 0 -.5 .1 -.8c.1 -.3 .3 -.5 .5 -.7c.2 -.2 .4 -.3 .7 -.4c.2 -.1 .5 -.2 .8 -.2c.2 0 .5 .1 .7 .2c.3 .1 .5 .2 .7 .4c.2 .2 .4 .4 .5 .7c.1 .3 .1 .5 .1 .8Z" class="g1"/>
<path d="M94.3 784.1c0 .3 0 .6 -.1 .8c-.1 .3 -.3 .5 -.5 .7c-.2 .2 -.4 .3 -.7 .4c-.2 .1 -.5 .2 -.7 .2c-.3 0 -.6 -.1 -.8 -.2c-.3 -.1 -.5 -.2 -.7 -.4c-.2 -.2 -.4 -.4 -.5 -.7c-.1 -.2 -.1 -.5 -.1 -.8c0 -.3 0 -.5 .1 -.8c.1 -.2 .3 -.5 .5 -.6c.2 -.2 .4 -.4 .7 -.5c.2 -.1 .5 -.2 .8 -.2c.2 0 .5 .1 .7 .2c.3 .1 .5 .3 .7 .5c.2 .1 .4 .4 .5 .6c.1 .3 .1 .5 .1 .8Z" class="g1"/>
<path d="M90.9 128.9H818.5" class="g2"/>
<path d="M90.9 346.6H818.5M89.3 429.8H816.8" class="g3"/>
<path d="M94.3 882.1c0 .3 0 .6 -.1 .8c-.1 .3 -.3 .5 -.5 .7c-.2 .2 -.4 .3 -.7 .4c-.2 .1 -.5 .2 -.7 .2c-.3 0 -.6 -.1 -.8 -.2c-.3 -.1 -.5 -.2 -.7 -.4c-.2 -.2 -.4 -.4 -.5 -.7c-.1 -.2 -.1 -.5 -.1 -.8c0 -.3 0 -.5 .1 -.8c.1 -.2 .3 -.4 .5 -.6c.2 -.2 .4 -.4 .7 -.5c.2 -.1 .5 -.1 .8 -.1c.2 0 .5 0 .7 .1c.3 .1 .5 .3 .7 .5c.2 .2 .4 .4 .5 .6c.1 .3 .1 .5 .1 .8Z" class="g1"/>
<path d="M94.3 921.4c0 .3 0 .6 -.1 .8c-.1 .3 -.3 .5 -.5 .7c-.2 .2 -.4 .4 -.7 .5c-.2 .1 -.5 .1 -.7 .1c-.3 0 -.6 0 -.8 -.1c-.3 -.1 -.5 -.3 -.7 -.5c-.2 -.2 -.4 -.4 -.5 -.7c-.1 -.2 -.1 -.5 -.1 -.8c0 -.2 0 -.5 .1 -.7c.1 -.3 .3 -.5 .5 -.7c.2 -.2 .4 -.4 .7 -.5c.2 -.1 .5 -.1 .8 -.1c.2 0 .5 0 .7 .1c.3 .1 .5 .3 .7 .5c.2 .2 .4 .4 .5 .7c.1 .2 .1 .5 .1 .7Z" class="g1"/>
<path d="M94.3 941.1c0 .3 0 .6 -.1 .8c-.1 .3 -.3 .5 -.5 .7c-.2 .2 -.4 .3 -.7 .4c-.2 .1 -.5 .2 -.7 .2c-.3 0 -.6 -.1 -.8 -.2c-.3 -.1 -.5 -.2 -.7 -.4c-.2 -.2 -.4 -.4 -.5 -.7c-.1 -.2 -.1 -.5 -.1 -.8c0 -.3 0 -.5 .1 -.8c.1 -.2 .3 -.5 .5 -.7c.2 -.1 .4 -.3 .7 -.4c.2 -.1 .5 -.2 .8 -.2c.2 0 .5 .1 .7 .2c.3 .1 .5 .3 .7 .4c.2 .2 .4 .5 .5 .7c.1 .3 .1 .5 .1 .8Z" class="g1"/>
<path d="M94.3 980.4c0 .3 0 .6 -.1 .8c-.1 .3 -.3 .5 -.5 .7c-.2 .2 -.4 .3 -.7 .5c-.2 .1 -.5 .1 -.7 .1c-.3 0 -.6 0 -.8 -.1c-.3 -.2 -.5 -.3 -.7 -.5c-.2 -.2 -.4 -.4 -.5 -.7c-.1 -.2 -.1 -.5 -.1 -.8c0 -.2 0 -.5 .1 -.8c.1 -.2 .3 -.4 .5 -.6c.2 -.2 .4 -.4 .7 -.5c.2 -.1 .5 -.1 .8 -.1c.2 0 .5 0 .7 .1c.3 .1 .5 .3 .7 .5c.2 .2 .4 .4 .5 .6c.1 .3 .1 .6 .1 .8Z" class="g1"/>
<path d="M94.3 1019.8c0 .2 0 .5 -.1 .8c-.1 .2 -.3 .4 -.5 .6c-.2 .2 -.4 .4 -.7 .5c-.2 .1 -.5 .1 -.7 .1c-.3 0 -.6 0 -.8 -.1c-.3 -.1 -.5 -.3 -.7 -.5c-.2 -.2 -.4 -.4 -.5 -.6c-.1 -.3 -.1 -.6 -.1 -.8c0 -.3 0 -.6 .1 -.8c.1 -.3 .3 -.5 .5 -.7c.2 -.2 .4 -.3 .7 -.4c.2 -.2 .5 -.2 .8 -.2c.2 0 .5 0 .7 .2c.3 .1 .5 .2 .7 .4c.2 .2 .4 .4 .5 .7c.1 .2 .1 .5 .1 .8Z" class="g1"/>
<path d="M94.3 1059.1c0 .3 0 .5 -.1 .8c-.1 .2 -.3 .5 -.5 .7c-.2 .1 -.4 .3 -.7 .4c-.2 .1 -.5 .2 -.7 .2c-.3 0 -.6 -.1 -.8 -.2c-.3 -.1 -.5 -.3 -.7 -.4c-.2 -.2 -.4 -.5 -.5 -.7c-.1 -.3 -.1 -.5 -.1 -.8c0 -.3 0 -.5 .1 -.8c.1 -.3 .3 -.5 .5 -.7c.2 -.2 .4 -.3 .7 -.4c.2 -.1 .5 -.2 .8 -.2c.2 0 .5 .1 .7 .2c.3 .1 .5 .2 .7 .4c.2 .2 .4 .4 .5 .7c.1 .3 .1 .5 .1 .8Z" class="g1"/>
<path d="M89.3 235H816.8M89.3 1099.2H816.8M89.3 1162.3H816.8" class="g3"/>
</svg>